<?xml version="1.0" encoding="UTF-8" standalone="no"?>
<!DOCTYPE svg PUBLIC "-//W3C//DTD SVG 1.1//EN"
 "http://www.w3.org/Graphics/SVG/1.1/DTD/svg11.dtd">
<!-- Generated by graphviz version 9.0.0 (20230911.1827)
 -->
<!-- Pages: 1 -->
<svg width="1679pt" height="548pt"
 viewBox="0.00 0.00 1678.75 548.00" xmlns="http://www.w3.org/2000/svg" xmlns:xlink="http://www.w3.org/1999/xlink">
<g id="graph0" class="graph" transform="scale(1 1) rotate(0) translate(4 544)">
<polygon fill="white" stroke="none" points="-4,4 -4,-544 1674.75,-544 1674.75,4 -4,4"/>
<!-- [root] data.local_file.read_mydata (expand) -->
<g id="node1" class="node">
<title>[root] data.local_file.read_mydata (expand)</title>
<polygon fill="none" stroke="black" points="285.88,-396 116.88,-396 116.88,-360 285.88,-360 285.88,-396"/>
<text text-anchor="middle" x="201.38" y="-372.57" font-family="Times New Roman,serif" font-size="14.00">data.local_file.read_mydata</text>
</g>
<!-- [root] provider[&quot;registry.terraform.io/hashicorp/local&quot;] -->
<g id="node7" class="node">
<title>[root] provider[&quot;registry.terraform.io/hashicorp/local&quot;]</title>
<polygon fill="none" stroke="black" points="674.38,-36 407.39,-18 674.38,0 941.36,-18 674.38,-36"/>
<text text-anchor="middle" x="674.38" y="-12.58" font-family="Times New Roman,serif" font-size="14.00">provider[&quot;registry.terraform.io/hashicorp/local&quot;]</text>
</g>
<!-- [root] data.local_file.read_mydata (expand)&#45;&gt;[root] provider[&quot;registry.terraform.io/hashicorp/local&quot;] -->
<g id="edge1" class="edge">
<title>[root] data.local_file.read_mydata (expand)&#45;&gt;[root] provider[&quot;registry.terraform.io/hashicorp/local&quot;]</title>
<path fill="none" stroke="black" d="M209.07,-359.91C220.17,-333.62 239.38,-281.45 239.38,-235 239.38,-235 239.38,-235 239.38,-161 239.38,-91.57 442.14,-50.76 570.8,-31.85"/>
<polygon fill="black" stroke="black" points="570.96,-35.36 580.36,-30.46 569.96,-28.43 570.96,-35.36"/>
</g>
<!-- [root] local_file.my_file (expand) -->
<g id="node2" class="node">
<title>[root] local_file.my_file (expand)</title>
<polygon fill="none" stroke="black" points="1410,-108 1298.75,-108 1298.75,-72 1410,-72 1410,-108"/>
<text text-anchor="middle" x="1354.38" y="-84.58" font-family="Times New Roman,serif" font-size="14.00">local_file.my_file</text>
</g>
<!-- [root] local_file.my_file (expand)&#45;&gt;[root] provider[&quot;registry.terraform.io/hashicorp/local&quot;] -->
<g id="edge2" class="edge">
<title>[root] local_file.my_file (expand)&#45;&gt;[root] provider[&quot;registry.terraform.io/hashicorp/local&quot;]</title>
<path fill="none" stroke="black" d="M1298.31,-73.52C1295.63,-72.96 1292.98,-72.45 1290.38,-72 1202.69,-56.7 970.08,-38.98 817.12,-28.4"/>
<polygon fill="black" stroke="black" points="817.52,-24.92 807.3,-27.72 817.04,-31.9 817.52,-24.92"/>
</g>
<!-- [root] var.content1 -->
<g id="node10" class="node">
<title>[root] var.content1</title>
<polygon fill="none" stroke="black" points="1247.88,-36 1168.88,-36 1168.88,0 1253.88,0 1253.88,-30 1247.88,-36"/>
<polyline fill="none" stroke="black" points="1247.88,-36 1247.88,-30"/>
<polyline fill="none" stroke="black" points="1253.88,-30 1247.88,-30"/>
<text text-anchor="middle" x="1211.38" y="-12.58" font-family="Times New Roman,serif" font-size="14.00">var.content1</text>
</g>
<!-- [root] local_file.my_file (expand)&#45;&gt;[root] var.content1 -->
<g id="edge3" class="edge">
<title>[root] local_file.my_file (expand)&#45;&gt;[root] var.content1</title>
<path fill="none" stroke="black" d="M1318.66,-71.52C1299.92,-62.34 1276.76,-51.01 1256.77,-41.22"/>
<polygon fill="black" stroke="black" points="1258.52,-38.18 1248,-36.93 1255.44,-44.47 1258.52,-38.18"/>
</g>
<!-- [root] var.newfilename -->
<g id="node15" class="node">
<title>[root] var.newfilename</title>
<polygon fill="none" stroke="black" points="1401,-36 1301.75,-36 1301.75,0 1407,0 1407,-30 1401,-36"/>
<polyline fill="none" stroke="black" points="1401,-36 1401,-30"/>
<polyline fill="none" stroke="black" points="1407,-30 1401,-30"/>
<text text-anchor="middle" x="1354.38" y="-12.58" font-family="Times New Roman,serif" font-size="14.00">var.newfilename</text>
</g>
<!-- [root] local_file.my_file (expand)&#45;&gt;[root] var.newfilename -->
<g id="edge4" class="edge">
<title>[root] local_file.my_file (expand)&#45;&gt;[root] var.newfilename</title>
<path fill="none" stroke="black" d="M1354.38,-71.7C1354.38,-64.41 1354.38,-55.73 1354.38,-47.54"/>
<polygon fill="black" stroke="black" points="1357.88,-47.62 1354.38,-37.62 1350.88,-47.62 1357.88,-47.62"/>
</g>
<!-- [root] local_file.my_file2 (expand) -->
<g id="node3" class="node">
<title>[root] local_file.my_file2 (expand)</title>
<polygon fill="none" stroke="black" points="1326.38,-180 1208.38,-180 1208.38,-144 1326.38,-144 1326.38,-180"/>
<text text-anchor="middle" x="1267.38" y="-156.57" font-family="Times New Roman,serif" font-size="14.00">local_file.my_file2</text>
</g>
<!-- [root] local_file.my_file2 (expand)&#45;&gt;[root] local_file.my_file (expand) -->
<g id="edge5" class="edge">
<title>[root] local_file.my_file2 (expand)&#45;&gt;[root] local_file.my_file (expand)</title>
<path fill="none" stroke="black" d="M1288.88,-143.7C1299.44,-135.2 1312.35,-124.81 1323.91,-115.51"/>
<polygon fill="black" stroke="black" points="1326.04,-118.29 1331.64,-109.3 1321.65,-112.84 1326.04,-118.29"/>
</g>
<!-- [root] var.content2 -->
<g id="node11" class="node">
<title>[root] var.content2</title>
<polygon fill="none" stroke="black" points="1274.88,-108 1195.88,-108 1195.88,-72 1280.88,-72 1280.88,-102 1274.88,-108"/>
<polyline fill="none" stroke="black" points="1274.88,-108 1274.88,-102"/>
<polyline fill="none" stroke="black" points="1280.88,-102 1274.88,-102"/>
<text text-anchor="middle" x="1238.38" y="-84.58" font-family="Times New Roman,serif" font-size="14.00">var.content2</text>
</g>
<!-- [root] local_file.my_file2 (expand)&#45;&gt;[root] var.content2 -->
<g id="edge6" class="edge">
<title>[root] local_file.my_file2 (expand)&#45;&gt;[root] var.content2</title>
<path fill="none" stroke="black" d="M1260.21,-143.7C1257.08,-136.15 1253.34,-127.12 1249.84,-118.68"/>
<polygon fill="black" stroke="black" points="1253.1,-117.4 1246.04,-109.5 1246.64,-120.08 1253.1,-117.4"/>
</g>
<!-- [root] var.filename2 -->
<g id="node13" class="node">
<title>[root] var.filename2</title>
<polygon fill="none" stroke="black" points="1172.13,-108 1088.63,-108 1088.63,-72 1178.13,-72 1178.13,-102 1172.13,-108"/>
<polyline fill="none" stroke="black" points="1172.13,-108 1172.13,-102"/>
<polyline fill="none" stroke="black" points="1178.13,-102 1172.13,-102"/>
<text text-anchor="middle" x="1133.38" y="-84.58" font-family="Times New Roman,serif" font-size="14.00">var.filename2</text>
</g>
<!-- [root] local_file.my_file2 (expand)&#45;&gt;[root] var.filename2 -->
<g id="edge7" class="edge">
<title>[root] local_file.my_file2 (expand)&#45;&gt;[root] var.filename2</title>
<path fill="none" stroke="black" d="M1233.91,-143.52C1216.51,-134.43 1195.05,-123.22 1176.43,-113.49"/>
<polygon fill="black" stroke="black" points="1178.24,-110.49 1167.76,-108.96 1175,-116.69 1178.24,-110.49"/>
</g>
<!-- [root] local_file.my_file3 (expand) -->
<g id="node4" class="node">
<title>[root] local_file.my_file3 (expand)</title>
<polygon fill="none" stroke="black" points="570.38,-324 452.38,-324 452.38,-288 570.38,-288 570.38,-324"/>
<text text-anchor="middle" x="511.38" y="-300.57" font-family="Times New Roman,serif" font-size="14.00">local_file.my_file3</text>
</g>
<!-- [root] random_pet.my_pet_name (expand) -->
<g id="node9" class="node">
<title>[root] random_pet.my_pet_name (expand)</title>
<polygon fill="none" stroke="black" points="916.38,-252 750.38,-252 750.38,-216 916.38,-216 916.38,-252"/>
<text text-anchor="middle" x="833.38" y="-228.57" font-family="Times New Roman,serif" font-size="14.00">random_pet.my_pet_name</text>
</g>
<!-- [root] local_file.my_file3 (expand)&#45;&gt;[root] random_pet.my_pet_name (expand) -->
<g id="edge8" class="edge">
<title>[root] local_file.my_file3 (expand)&#45;&gt;[root] random_pet.my_pet_name (expand)</title>
<path fill="none" stroke="black" d="M570.68,-290.03C573.62,-289.33 576.53,-288.65 579.38,-288 632.03,-275.93 691.08,-263.54 738.99,-253.78"/>
<polygon fill="black" stroke="black" points="739.39,-257.27 748.49,-251.85 737.99,-250.41 739.39,-257.27"/>
</g>
<!-- [root] local_file.setof_files (expand) -->
<g id="node5" class="node">
<title>[root] local_file.setof_files (expand)</title>
<polygon fill="none" stroke="black" points="583.25,-396 455.5,-396 455.5,-360 583.25,-360 583.25,-396"/>
<text text-anchor="middle" x="519.38" y="-372.57" font-family="Times New Roman,serif" font-size="14.00">local_file.setof_files</text>
</g>
<!-- [root] local_file.setof_files (expand)&#45;&gt;[root] local_file.my_file3 (expand) -->
<g id="edge9" class="edge">
<title>[root] local_file.setof_files (expand)&#45;&gt;[root] local_file.my_file3 (expand)</title>
<path fill="none" stroke="black" d="M517.4,-359.7C516.57,-352.41 515.57,-343.73 514.64,-335.54"/>
<polygon fill="black" stroke="black" points="518.12,-335.15 513.5,-325.61 511.16,-335.94 518.12,-335.15"/>
</g>
<!-- [root] local_file.setof_newfiles (expand) -->
<g id="node6" class="node">
<title>[root] local_file.setof_newfiles (expand)</title>
<polygon fill="none" stroke="black" points="910.5,-108 760.25,-108 760.25,-72 910.5,-72 910.5,-108"/>
<text text-anchor="middle" x="835.38" y="-84.58" font-family="Times New Roman,serif" font-size="14.00">local_file.setof_newfiles</text>
</g>
<!-- [root] local_file.setof_newfiles (expand)&#45;&gt;[root] provider[&quot;registry.terraform.io/hashicorp/local&quot;] -->
<g id="edge10" class="edge">
<title>[root] local_file.setof_newfiles (expand)&#45;&gt;[root] provider[&quot;registry.terraform.io/hashicorp/local&quot;]</title>
<path fill="none" stroke="black" d="M795.16,-71.52C772.23,-61.54 743.41,-49.01 719.67,-38.69"/>
<polygon fill="black" stroke="black" points="721.12,-35.51 710.55,-34.73 718.33,-41.93 721.12,-35.51"/>
</g>
<!-- [root] local_file.setof_newfiles (expand)&#45;&gt;[root] var.content1 -->
<g id="edge11" class="edge">
<title>[root] local_file.setof_newfiles (expand)&#45;&gt;[root] var.content1</title>
<path fill="none" stroke="black" d="M910.56,-75C983.55,-61.42 1092.52,-41.13 1157.33,-29.06"/>
<polygon fill="black" stroke="black" points="1157.82,-32.53 1167.02,-27.26 1156.54,-25.65 1157.82,-32.53"/>
</g>
<!-- [root] var.newsetoffilename -->
<g id="node16" class="node">
<title>[root] var.newsetoffilename</title>
<polygon fill="none" stroke="black" points="1085.88,-36 958.88,-36 958.88,0 1091.88,0 1091.88,-30 1085.88,-36"/>
<polyline fill="none" stroke="black" points="1085.88,-36 1085.88,-30"/>
<polyline fill="none" stroke="black" points="1091.88,-30 1085.88,-30"/>
<text text-anchor="middle" x="1025.38" y="-12.58" font-family="Times New Roman,serif" font-size="14.00">var.newsetoffilename</text>
</g>
<!-- [root] local_file.setof_newfiles (expand)&#45;&gt;[root] var.newsetoffilename -->
<g id="edge12" class="edge">
<title>[root] local_file.setof_newfiles (expand)&#45;&gt;[root] var.newsetoffilename</title>
<path fill="none" stroke="black" d="M882.83,-71.52C908.55,-62.04 940.52,-50.26 967.67,-40.26"/>
<polygon fill="black" stroke="black" points="968.6,-43.65 976.78,-36.9 966.18,-37.08 968.6,-43.65"/>
</g>
<!-- [root] provider[&quot;registry.terraform.io/hashicorp/random&quot;] -->
<g id="node8" class="node">
<title>[root] provider[&quot;registry.terraform.io/hashicorp/random&quot;]</title>
<polygon fill="none" stroke="black" points="819.38,-180 536.87,-162 819.38,-144 1101.89,-162 819.38,-180"/>
<text text-anchor="middle" x="819.38" y="-156.57" font-family="Times New Roman,serif" font-size="14.00">provider[&quot;registry.terraform.io/hashicorp/random&quot;]</text>
</g>
<!-- [root] random_pet.my_pet_name (expand)&#45;&gt;[root] local_file.my_file2 (expand) -->
<g id="edge22" class="edge">
<title>[root] random_pet.my_pet_name (expand)&#45;&gt;[root] local_file.my_file2 (expand)</title>
<path fill="none" stroke="black" d="M916.64,-223.38C988.47,-214.52 1095.17,-200.04 1197.01,-180.36"/>
<polygon fill="black" stroke="black" points="1197.49,-183.83 1206.63,-178.48 1196.15,-176.96 1197.49,-183.83"/>
</g>
<!-- [root] random_pet.my_pet_name (expand)&#45;&gt;[root] provider[&quot;registry.terraform.io/hashicorp/random&quot;] -->
<g id="edge23" class="edge">
<title>[root] random_pet.my_pet_name (expand)&#45;&gt;[root] provider[&quot;registry.terraform.io/hashicorp/random&quot;]</title>
<path fill="none" stroke="black" d="M829.92,-215.7C828.44,-208.32 826.68,-199.52 825.03,-191.25"/>
<polygon fill="black" stroke="black" points="828.49,-190.71 823.09,-181.59 821.62,-192.08 828.49,-190.71"/>
</g>
<!-- [root] var.length -->
<g id="node14" class="node">
<title>[root] var.length</title>
<polygon fill="none" stroke="black" points="1184.38,-180 1120.38,-180 1120.38,-144 1190.38,-144 1190.38,-174 1184.38,-180"/>
<polyline fill="none" stroke="black" points="1184.38,-180 1184.38,-174"/>
<polyline fill="none" stroke="black" points="1190.38,-174 1184.38,-174"/>
<text text-anchor="middle" x="1155.38" y="-156.57" font-family="Times New Roman,serif" font-size="14.00">var.length</text>
</g>
<!-- [root] random_pet.my_pet_name (expand)&#45;&gt;[root] var.length -->
<g id="edge24" class="edge">
<title>[root] random_pet.my_pet_name (expand)&#45;&gt;[root] var.length</title>
<path fill="none" stroke="black" d="M916.71,-221.14C969.69,-212.67 1039.77,-199.75 1109.32,-180.33"/>
<polygon fill="black" stroke="black" points="1109.9,-183.8 1118.57,-177.7 1107.99,-177.07 1109.9,-183.8"/>
</g>
<!-- [root] var.prefix -->
<g id="node17" class="node">
<title>[root] var.prefix</title>
<polygon fill="none" stroke="black" points="406,-180 342.75,-180 342.75,-144 412,-144 412,-174 406,-180"/>
<polyline fill="none" stroke="black" points="406,-180 406,-174"/>
<polyline fill="none" stroke="black" points="412,-174 406,-174"/>
<text text-anchor="middle" x="377.38" y="-156.57" font-family="Times New Roman,serif" font-size="14.00">var.prefix</text>
</g>
<!-- [root] random_pet.my_pet_name (expand)&#45;&gt;[root] var.prefix -->
<g id="edge25" class="edge">
<title>[root] random_pet.my_pet_name (expand)&#45;&gt;[root] var.prefix</title>
<path fill="none" stroke="black" d="M750.2,-228.19C668.74,-222.16 541.23,-209.18 423.22,-180.09"/>
<polygon fill="black" stroke="black" points="424.21,-176.74 413.66,-177.69 422.51,-183.53 424.21,-176.74"/>
</g>
<!-- [root] var.separator -->
<g id="node18" class="node">
<title>[root] var.separator</title>
<polygon fill="none" stroke="black" points="512.75,-180 430,-180 430,-144 518.75,-144 518.75,-174 512.75,-180"/>
<polyline fill="none" stroke="black" points="512.75,-180 512.75,-174"/>
<polyline fill="none" stroke="black" points="518.75,-174 512.75,-174"/>
<text text-anchor="middle" x="474.38" y="-156.57" font-family="Times New Roman,serif" font-size="14.00">var.separator</text>
</g>
<!-- [root] random_pet.my_pet_name (expand)&#45;&gt;[root] var.separator -->
<g id="edge26" class="edge">
<title>[root] random_pet.my_pet_name (expand)&#45;&gt;[root] var.separator</title>
<path fill="none" stroke="black" d="M749.94,-221.75C690.83,-213.04 609.55,-199.58 530.25,-180.54"/>
<polygon fill="black" stroke="black" points="531.09,-177.14 520.54,-178.18 529.43,-183.94 531.09,-177.14"/>
</g>
<!-- [root] var.filename1 -->
<g id="node12" class="node">
<title>[root] var.filename1</title>
<polygon fill="none" stroke="black" points="1625.13,-468 1541.63,-468 1541.63,-432 1631.13,-432 1631.13,-462 1625.13,-468"/>
<polyline fill="none" stroke="black" points="1625.13,-468 1625.13,-462"/>
<polyline fill="none" stroke="black" points="1631.13,-462 1625.13,-462"/>
<text text-anchor="middle" x="1586.38" y="-444.57" font-family="Times New Roman,serif" font-size="14.00">var.filename1</text>
</g>
<!-- [root] output.data_fetched (expand) -->
<g id="node19" class="node">
<title>[root] output.data_fetched (expand)</title>
<ellipse fill="none" stroke="black" cx="144.38" cy="-450" rx="144.38" ry="18"/>
<text text-anchor="middle" x="144.38" y="-444.57" font-family="Times New Roman,serif" font-size="14.00">[root] output.data_fetched (expand)</text>
</g>
<!-- [root] output.data_fetched (expand)&#45;&gt;[root] data.local_file.read_mydata (expand) -->
<g id="edge13" class="edge">
<title>[root] output.data_fetched (expand)&#45;&gt;[root] data.local_file.read_mydata (expand)</title>
<path fill="none" stroke="black" d="M158.47,-431.7C165.02,-423.64 172.96,-413.89 180.22,-404.98"/>
<polygon fill="black" stroke="black" points="182.89,-407.24 186.49,-397.28 177.46,-402.82 182.89,-407.24"/>
</g>
<!-- [root] output.file1_content (expand) -->
<g id="node20" class="node">
<title>[root] output.file1_content (expand)</title>
<ellipse fill="none" stroke="black" cx="1526.38" cy="-234" rx="144.38" ry="18"/>
<text text-anchor="middle" x="1526.38" y="-228.57" font-family="Times New Roman,serif" font-size="14.00">[root] output.file1_content (expand)</text>
</g>
<!-- [root] output.file1_content (expand)&#45;&gt;[root] local_file.my_file (expand) -->
<g id="edge14" class="edge">
<title>[root] output.file1_content (expand)&#45;&gt;[root] local_file.my_file (expand)</title>
<path fill="none" stroke="black" d="M1505.63,-215.87C1475.36,-190.89 1418.94,-144.3 1384.22,-115.64"/>
<polygon fill="black" stroke="black" points="1386.57,-113.04 1376.63,-109.38 1382.12,-118.44 1386.57,-113.04"/>
</g>
<!-- [root] output.filename1 (expand) -->
<g id="node21" class="node">
<title>[root] output.filename1 (expand)</title>
<ellipse fill="none" stroke="black" cx="1354.38" cy="-306" rx="131.4" ry="18"/>
<text text-anchor="middle" x="1354.38" y="-300.57" font-family="Times New Roman,serif" font-size="14.00">[root] output.filename1 (expand)</text>
</g>
<!-- [root] output.filename1 (expand)&#45;&gt;[root] local_file.my_file (expand) -->
<g id="edge15" class="edge">
<title>[root] output.filename1 (expand)&#45;&gt;[root] local_file.my_file (expand)</title>
<path fill="none" stroke="black" d="M1354.38,-287.85C1354.38,-251.14 1354.38,-164.66 1354.38,-119.53"/>
<polygon fill="black" stroke="black" points="1357.88,-119.75 1354.38,-109.75 1350.88,-119.75 1357.88,-119.75"/>
</g>
<!-- [root] output.filename2 (expand) -->
<g id="node22" class="node">
<title>[root] output.filename2 (expand)</title>
<ellipse fill="none" stroke="black" cx="1195.38" cy="-234" rx="131.4" ry="18"/>
<text text-anchor="middle" x="1195.38" y="-228.57" font-family="Times New Roman,serif" font-size="14.00">[root] output.filename2 (expand)</text>
</g>
<!-- [root] output.filename2 (expand)&#45;&gt;[root] local_file.my_file2 (expand) -->
<g id="edge16" class="edge">
<title>[root] output.filename2 (expand)&#45;&gt;[root] local_file.my_file2 (expand)</title>
<path fill="none" stroke="black" d="M1213.17,-215.7C1221.65,-207.45 1231.96,-197.43 1241.31,-188.35"/>
<polygon fill="black" stroke="black" points="1243.72,-190.88 1248.45,-181.4 1238.84,-185.86 1243.72,-190.88"/>
</g>
<!-- [root] output.petname (expand) -->
<g id="node23" class="node">
<title>[root] output.petname (expand)</title>
<ellipse fill="none" stroke="black" cx="1040.38" cy="-378" rx="127.41" ry="18"/>
<text text-anchor="middle" x="1040.38" y="-372.57" font-family="Times New Roman,serif" font-size="14.00">[root] output.petname (expand)</text>
</g>
<!-- [root] output.petname (expand)&#45;&gt;[root] random_pet.my_pet_name (expand) -->
<g id="edge17" class="edge">
<title>[root] output.petname (expand)&#45;&gt;[root] random_pet.my_pet_name (expand)</title>
<path fill="none" stroke="black" d="M1065.9,-359.98C1090.36,-341.59 1120.88,-311.74 1101.38,-288 1079.49,-261.36 996,-247.88 927.96,-241.21"/>
<polygon fill="black" stroke="black" points="928.54,-237.75 918.26,-240.3 927.89,-244.72 928.54,-237.75"/>
</g>
<!-- [root] provider[&quot;registry.terraform.io/hashicorp/local&quot;] (close) -->
<g id="node24" class="node">
<title>[root] provider[&quot;registry.terraform.io/hashicorp/local&quot;] (close)</title>
<ellipse fill="none" stroke="black" cx="547.38" cy="-450" rx="240.68" ry="18"/>
<text text-anchor="middle" x="547.38" y="-444.57" font-family="Times New Roman,serif" font-size="14.00">[root] provider[&quot;registry.terraform.io/hashicorp/local&quot;] (close)</text>
</g>
<!-- [root] provider[&quot;registry.terraform.io/hashicorp/local&quot;] (close)&#45;&gt;[root] data.local_file.read_mydata (expand) -->
<g id="edge18" class="edge">
<title>[root] provider[&quot;registry.terraform.io/hashicorp/local&quot;] (close)&#45;&gt;[root] data.local_file.read_mydata (expand)</title>
<path fill="none" stroke="black" d="M466.25,-432.59C415.72,-422.36 350.45,-409.16 297.35,-398.42"/>
<polygon fill="black" stroke="black" points="298.19,-395.02 287.69,-396.46 296.8,-401.88 298.19,-395.02"/>
</g>
<!-- [root] provider[&quot;registry.terraform.io/hashicorp/local&quot;] (close)&#45;&gt;[root] local_file.setof_files (expand) -->
<g id="edge19" class="edge">
<title>[root] provider[&quot;registry.terraform.io/hashicorp/local&quot;] (close)&#45;&gt;[root] local_file.setof_files (expand)</title>
<path fill="none" stroke="black" d="M540.45,-431.7C537.44,-424.15 533.82,-415.12 530.45,-406.68"/>
<polygon fill="black" stroke="black" points="533.74,-405.49 526.78,-397.51 527.24,-408.09 533.74,-405.49"/>
</g>
<!-- [root] provider[&quot;registry.terraform.io/hashicorp/local&quot;] (close)&#45;&gt;[root] local_file.setof_newfiles (expand) -->
<g id="edge20" class="edge">
<title>[root] provider[&quot;registry.terraform.io/hashicorp/local&quot;] (close)&#45;&gt;[root] local_file.setof_newfiles (expand)</title>
<path fill="none" stroke="black" d="M460.95,-432.76C394.64,-414.72 314.38,-378.18 314.38,-307 314.38,-307 314.38,-307 314.38,-233 314.38,-192.55 303.31,-171.06 333.38,-144 363.57,-116.82 613.36,-101.21 748.81,-94.67"/>
<polygon fill="black" stroke="black" points="748.62,-98.18 758.45,-94.21 748.29,-91.19 748.62,-98.18"/>
</g>
<!-- [root] provider[&quot;registry.terraform.io/hashicorp/random&quot;] (close) -->
<g id="node25" class="node">
<title>[root] provider[&quot;registry.terraform.io/hashicorp/random&quot;] (close)</title>
<ellipse fill="none" stroke="black" cx="840.38" cy="-306" rx="251.66" ry="18"/>
<text text-anchor="middle" x="840.38" y="-300.57" font-family="Times New Roman,serif" font-size="14.00">[root] provider[&quot;registry.terraform.io/hashicorp/random&quot;] (close)</text>
</g>
<!-- [root] provider[&quot;registry.terraform.io/hashicorp/random&quot;] (close)&#45;&gt;[root] random_pet.my_pet_name (expand) -->
<g id="edge21" class="edge">
<title>[root] provider[&quot;registry.terraform.io/hashicorp/random&quot;] (close)&#45;&gt;[root] random_pet.my_pet_name (expand)</title>
<path fill="none" stroke="black" d="M838.65,-287.7C837.92,-280.41 837.05,-271.73 836.23,-263.54"/>
<polygon fill="black" stroke="black" points="839.71,-263.21 835.24,-253.61 832.75,-263.91 839.71,-263.21"/>
</g>
<!-- [root] root -->
<g id="node26" class="node">
<title>[root] root</title>
<ellipse fill="none" stroke="black" cx="1156.38" cy="-522" rx="50.07" ry="18"/>
<text text-anchor="middle" x="1156.38" y="-516.58" font-family="Times New Roman,serif" font-size="14.00">[root] root</text>
</g>
<!-- [root] root&#45;&gt;[root] var.filename1 -->
<g id="edge34" class="edge">
<title>[root] root&#45;&gt;[root] var.filename1</title>
<path fill="none" stroke="black" d="M1204.19,-516.31C1275.21,-508.87 1412.55,-492.62 1527.38,-468 1528.38,-467.78 1529.39,-467.56 1530.41,-467.33"/>
<polygon fill="black" stroke="black" points="1531.08,-470.77 1539.97,-465 1529.43,-463.97 1531.08,-470.77"/>
</g>
<!-- [root] root&#45;&gt;[root] output.data_fetched (expand) -->
<g id="edge27" class="edge">
<title>[root] root&#45;&gt;[root] output.data_fetched (expand)</title>
<path fill="none" stroke="black" d="M1106.93,-518.8C975.18,-512.75 604.78,-494.54 297.38,-468 284.58,-466.9 271.2,-465.61 257.91,-464.24"/>
<polygon fill="black" stroke="black" points="258.59,-460.79 248.28,-463.24 257.86,-467.76 258.59,-460.79"/>
</g>
<!-- [root] root&#45;&gt;[root] output.file1_content (expand) -->
<g id="edge28" class="edge">
<title>[root] root&#45;&gt;[root] output.file1_content (expand)</title>
<path fill="none" stroke="black" d="M1192.74,-509.29C1261.38,-485.4 1410.63,-424.62 1494.38,-324 1508.83,-306.63 1517,-282.21 1521.45,-263.34"/>
<polygon fill="black" stroke="black" points="1524.86,-264.14 1523.51,-253.63 1518.01,-262.69 1524.86,-264.14"/>
</g>
<!-- [root] root&#45;&gt;[root] output.filename1 (expand) -->
<g id="edge29" class="edge">
<title>[root] root&#45;&gt;[root] output.filename1 (expand)</title>
<path fill="none" stroke="black" d="M1172.84,-504.98C1183.41,-494.58 1197.37,-480.65 1209.38,-468 1253.88,-421.11 1303.97,-364.63 1332.1,-332.56"/>
<polygon fill="black" stroke="black" points="1334.47,-335.15 1338.43,-325.33 1329.21,-330.54 1334.47,-335.15"/>
</g>
<!-- [root] root&#45;&gt;[root] output.filename2 (expand) -->
<g id="edge30" class="edge">
<title>[root] root&#45;&gt;[root] output.filename2 (expand)</title>
<path fill="none" stroke="black" d="M1159.38,-503.64C1163.51,-479.54 1171.02,-434.53 1176.38,-396 1182.8,-349.77 1188.87,-295.89 1192.35,-263.65"/>
<polygon fill="black" stroke="black" points="1195.81,-264.24 1193.4,-253.93 1188.85,-263.5 1195.81,-264.24"/>
</g>
<!-- [root] root&#45;&gt;[root] output.petname (expand) -->
<g id="edge31" class="edge">
<title>[root] root&#45;&gt;[root] output.petname (expand)</title>
<path fill="none" stroke="black" d="M1142.84,-504.43C1122.89,-480.01 1085.39,-434.1 1061.71,-405.11"/>
<polygon fill="black" stroke="black" points="1064.54,-403.05 1055.5,-397.52 1059.12,-407.48 1064.54,-403.05"/>
</g>
<!-- [root] root&#45;&gt;[root] provider[&quot;registry.terraform.io/hashicorp/local&quot;] (close) -->
<g id="edge32" class="edge">
<title>[root] root&#45;&gt;[root] provider[&quot;registry.terraform.io/hashicorp/local&quot;] (close)</title>
<path fill="none" stroke="black" d="M1109.1,-515.57C1019.39,-505.25 821.4,-482.5 686.14,-466.95"/>
<polygon fill="black" stroke="black" points="686.73,-463.49 676.39,-465.83 685.93,-470.45 686.73,-463.49"/>
</g>
<!-- [root] root&#45;&gt;[root] provider[&quot;registry.terraform.io/hashicorp/random&quot;] (close) -->
<g id="edge33" class="edge">
<title>[root] root&#45;&gt;[root] provider[&quot;registry.terraform.io/hashicorp/random&quot;] (close)</title>
<path fill="none" stroke="black" d="M1120.22,-509.38C1068.21,-491.36 971.2,-452.74 904.38,-396 883.93,-378.64 866.61,-353.43 855.16,-334.27"/>
<polygon fill="black" stroke="black" points="858.21,-332.55 850.18,-325.64 852.15,-336.05 858.21,-332.55"/>
</g>
</g>
</svg>
